<svg width="84" height="84" viewBox="0 0 84 84" fill="none" xmlns="http://www.w3.org/2000/svg">
<path d="M42 2.625C20.2545 2.625 2.625 20.2545 2.625 42C2.625 63.7455 20.2545 81.375 42 81.375C63.7455 81.375 81.375 63.7455 81.375 42C81.375 20.2545 63.7455 2.625 42 2.625ZM48.5625 67.9219H35.4375V36.4219H48.5625V67.9219ZM42 29.2031C40.2595 29.2031 38.5903 28.5117 37.3596 27.281C36.1289 26.0503 35.4375 24.3811 35.4375 22.6406C35.4375 20.9001 36.1289 19.2309 37.3596 18.0002C38.5903 16.7695 40.2595 16.0781 42 16.0781C43.7405 16.0781 45.4097 16.7695 46.6404 18.0002C47.8711 19.2309 48.5625 20.9001 48.5625 22.6406C48.5625 24.3811 47.8711 26.0503 46.6404 27.281C45.4097 28.5117 43.7405 29.2031 42 29.2031Z" fill="#CCF056"/>
</svg>
