<svg width="311" height="491" viewBox="0 0 311 491" fill="none" xmlns="http://www.w3.org/2000/svg">
<path d="M103.404 335.025C103.404 302.937 107.031 277.663 114.283 259.202C121.536 240.521 133.294 224.368 149.557 210.741C165.821 197.115 178.128 184.698 186.48 173.489C195.051 162.061 199.337 149.534 199.337 135.908C199.337 102.721 185.051 86.1283 156.48 86.1283C143.294 86.1283 132.635 90.9634 124.503 100.634C116.371 110.304 112.086 123.38 111.646 139.864H0.21959C0.659142 95.9084 14.505 61.7332 41.7573 37.338C69.0095 12.7231 107.251 0.41564 156.48 0.41564C205.49 0.41564 243.402 11.7341 270.215 34.3711C297.247 57.008 310.763 89.2052 310.763 130.963C310.763 149.204 307.137 165.797 299.884 180.742C292.632 195.687 280.984 210.961 264.94 226.565L227.029 261.839C216.26 272.169 208.787 282.828 204.611 293.817C200.436 304.586 198.128 318.322 197.688 335.025H103.404ZM89.8883 435.243C89.8883 418.979 95.7123 405.683 107.36 395.353C119.228 384.804 133.953 379.529 151.535 379.529C169.118 379.529 183.733 384.804 195.381 395.353C207.249 405.683 213.183 418.979 213.183 435.243C213.183 451.506 207.249 464.912 195.381 475.462C183.733 485.791 169.118 490.956 151.535 490.956C133.953 490.956 119.228 485.791 107.36 475.462C95.7123 464.912 89.8883 451.506 89.8883 435.243Z" fill="white"/>
</svg>
