<svg width="113" height="446" viewBox="0 0 113 446" fill="none" xmlns="http://www.w3.org/2000/svg">
<path d="M98.4771 300.865H16.0826L3.10468 0.562649H111.455L98.4771 300.865ZM0.0865708 394.426C0.0865708 379.537 5.41857 367.364 16.0826 357.907C26.9478 348.249 40.4287 343.42 56.5253 343.42C72.6219 343.42 86.0022 348.249 96.6662 357.907C107.531 367.364 112.964 379.537 112.964 394.426C112.964 409.316 107.531 421.59 96.6662 431.247C86.0022 440.704 72.6219 445.433 56.5253 445.433C40.4287 445.433 26.9478 440.704 16.0826 431.247C5.41857 421.59 0.0865708 409.316 0.0865708 394.426Z" fill="#C5F132"/>
</svg>
