<svg width="44" height="47" viewBox="0 0 44 47" fill="none" xmlns="http://www.w3.org/2000/svg">
<path d="M9.54 46.64C9.54 46.12 9.44 45.86 9.24 45.86L7.86 46.52C7.86 46.24 7.7 46.04 7.38 45.92L6.9 45.86C6.58 45.86 6.18 46 5.7 46.28C5.62 46.08 5.52 45.88 5.4 45.68C5.28 45.48 5.18 45.3 5.1 45.14C4.58 44.14 4.06 43.04 3.54 41.84C3.06 40.6 2.6 39.42 2.16 38.3C1.76 37.18 1.44 36.3 1.2 35.66C1.04 35.14 0.86 34.36 0.66 33.32C0.46 32.28 0.26 30.96 0.0600002 29.36C0.5 29.64 0.84 29.78 1.08 29.78C1.36 29.78 1.62 29.36 1.86 28.52C1.98 28.68 2.2 28.76 2.52 28.76C2.76 28.76 2.94 28.68 3.06 28.52L4.02 27.08L5.1 27.44H5.16C5.24 27.44 5.32 27.4 5.4 27.32C5.48 27.24 5.6 27.16 5.76 27.08C6.08 26.88 6.32 26.78 6.48 26.78L6.66 26.84C7.66 27.32 8.3 28.2 8.58 29.48C9.3 32.52 10.02 34.04 10.74 34.04C11.46 34.04 12.3 33.28 13.26 31.76C13.74 31 14.22 30.12 14.7 29.12C15.22 28.12 15.74 27 16.26 25.76C16.34 26.24 16.42 26.48 16.5 26.48C16.7 26.48 17.04 25.98 17.52 24.98C18.04 23.98 18.86 22.6 19.98 20.84C20.62 19.76 21.42 18.54 22.38 17.18C23.38 15.82 24.44 14.42 25.56 12.98C26.68 11.54 27.76 10.18 28.8 8.9C29.88 7.62 30.84 6.52 31.68 5.6C32.52 4.68 33.14 4.08 33.54 3.8C35.06 2.76 36.26 1.76 37.14 0.799998C37.1 1.08 37.04 1.34 36.96 1.58C36.92 1.78 36.9 1.92 36.9 2C36.9 2.16 36.98 2.24 37.14 2.24L38.82 1.4V1.64C38.82 1.96 38.9 2.12 39.06 2.12C39.18 2.12 39.42 1.94 39.78 1.58C40.14 1.22 40.34 0.959999 40.38 0.799998L40.26 1.64L42.3 0.439999L41.82 1.52C42.46 1.08 42.92 0.859998 43.2 0.859998C43.36 0.859998 43.48 0.959997 43.56 1.16C43.64 1.32 43.68 1.48 43.68 1.64C43.68 1.88 43.58 2.16 43.38 2.48C43.18 2.8 42.92 3.18 42.6 3.62C42.36 3.94 41.96 4.42 41.4 5.06C40.88 5.66 40.08 6.56 39 7.76C37.92 8.92 36.48 10.54 34.68 12.62C34.2 13.14 33.46 14.06 32.46 15.38C31.46 16.66 30.32 18.16 29.04 19.88C27.8 21.56 26.56 23.26 25.32 24.98C24.08 26.7 22.98 28.26 22.02 29.66C21.06 31.02 20.38 32.04 19.98 32.72L16.26 39.02C15.46 40.38 14.8 41.5 14.28 42.38C13.76 43.22 13.36 43.8 13.08 44.12C12.48 44.84 11.82 45.48 11.1 46.04L10.56 45.74L10.08 46.04L9.54 46.64Z" fill="#CCF056"/>
</svg>
